<?xml version="1.0" standalone="no"?>
<!DOCTYPE svg PUBLIC "-//W3C//DTD SVG 20010904//EN"
 "http://www.w3.org/TR/2001/REC-SVG-20010904/DTD/svg10.dtd">
<svg version="1.0" xmlns="http://www.w3.org/2000/svg"
 width="317.000000pt" height="310.000000pt" viewBox="0 0 317.000000 310.000000"
 preserveAspectRatio="xMidYMid meet">

<g transform="translate(0.000000,310.000000) scale(0.100000,-0.100000)"
fill="#000000" stroke="none">
<path d="M1315 2996 c-324 -63 -556 -181 -784 -400 -223 -216 -376 -507 -426
-814 -23 -140 -16 -427 13 -553 103 -439 389 -806 777 -998 128 -63 211 -92
360 -126 107 -25 139 -28 300 -28 147 0 199 4 285 22 298 63 545 195 756 406
211 211 341 452 405 755 30 140 32 409 5 545 -92 464 -376 843 -786 1050 -116
58 -245 105 -360 130 -102 23 -447 30 -545 11z m168 -163 c3 -16 9 -56 13 -90
6 -59 5 -63 -14 -63 -22 0 -32 18 -32 60 0 50 -17 41 -29 -15 -9 -40 -18 -56
-34 -61 -11 -4 -23 -3 -24 2 -2 5 -17 32 -33 59 l-30 50 7 -62 c5 -60 5 -63
-15 -63 -14 0 -23 8 -26 23 -10 41 -24 152 -21 155 2 2 18 5 36 5 29 2 36 -3
63 -51 33 -57 37 -56 56 26 11 50 13 52 45 52 27 0 33 -4 38 -27z m191 21 c9
-3 16 -15 16 -26 0 -18 -4 -19 -41 -13 -36 6 -40 5 -37 -11 2 -13 13 -20 36
-22 46 -5 43 -32 -3 -32 -28 0 -35 -4 -35 -20 0 -17 7 -20 40 -20 33 0 40 -3
40 -20 0 -18 -7 -20 -57 -20 -32 0 -63 4 -69 8 -7 4 -9 37 -6 95 l5 87 47 0
c27 0 55 -3 64 -6z m162 -27 c2 -1 7 -32 11 -67 l8 -65 40 53 c36 48 43 53 69
48 16 -4 31 -8 34 -11 2 -2 -6 -42 -18 -89 -18 -68 -27 -86 -41 -86 -27 0 -30
13 -14 66 8 26 13 50 11 52 -2 1 -20 -19 -40 -47 -50 -67 -73 -62 -82 20 -7
66 -14 68 -29 6 -8 -32 -16 -43 -33 -45 -28 -4 -28 3 -1 104 l21 82 31 -9 c16
-4 31 -10 33 -12z m-761 -79 c-4 -13 -9 -31 -11 -40 -4 -12 11 -29 46 -55 46
-34 49 -39 33 -50 -24 -18 -43 -16 -69 8 -29 27 -47 18 -33 -19 8 -21 7 -29
-7 -39 -10 -7 -20 -13 -23 -13 -5 0 -51 94 -79 160 -1 4 9 12 23 18 14 6 25 8
25 4 0 -5 6 -17 14 -27 13 -18 15 -17 25 22 10 37 20 47 54 52 5 0 5 -9 2 -21z
m1105 -45 c49 -28 62 -80 35 -133 -28 -55 -89 -66 -145 -27 -58 38 -64 104
-15 153 29 29 83 32 125 7z m-1281 -94 c53 -49 47 -122 -13 -159 -48 -29 -91
-26 -127 9 -48 49 -36 125 26 159 33 19 89 14 114 -9z m1499 -63 c49 -45 41
-106 -15 -106 -24 0 -42 -38 -28 -60 10 -16 -23 -24 -41 -9 -12 10 -14 23 -9
55 8 53 -7 64 -38 29 l-22 -27 -19 21 c-18 20 -17 21 40 89 66 77 56 77 132 8z
m-1640 -169 c9 -10 8 -18 -2 -32 -13 -18 -14 -17 -46 5 l-33 23 -19 -23 c-19
-23 -18 -23 7 -50 22 -23 23 -28 11 -45 -15 -21 -22 -18 -106 58 -51 46 -52
48 -35 67 18 20 18 20 41 -1 25 -24 47 -20 63 10 9 16 7 23 -13 39 -23 18 -24
21 -10 41 16 22 16 22 73 -28 32 -28 63 -57 69 -64z m1770 42 c12 -18 8 -24
-39 -67 -81 -73 -84 -74 -103 -53 -16 18 -13 22 51 80 37 33 70 61 73 61 3 0
11 -9 18 -21z m-887 -39 c438 -42 787 -397 816 -829 l6 -84 -33 7 c-49 9 -60
23 -60 76 0 184 -143 447 -312 574 -162 121 -303 168 -498 169 -150 1 -226
-15 -355 -77 -255 -121 -439 -377 -462 -641 -6 -81 -13 -91 -63 -102 l-33 -6
6 84 c24 313 217 598 502 742 78 39 212 78 300 86 44 5 82 9 85 9 3 1 48 -3
101 -8z m1001 -108 c16 -27 16 -28 -38 -100 -30 -40 -59 -72 -64 -72 -17 0
-30 36 -18 48 15 15 -16 62 -40 62 -20 0 -42 18 -42 35 0 9 132 49 175 54 6 1
18 -12 27 -27z m-2139 -23 c-3 -11 -16 -25 -29 -30 -13 -4 -24 -15 -24 -23 0
-28 17 -25 50 9 52 54 110 45 110 -17 0 -58 -41 -108 -89 -108 -16 0 -19 4
-13 21 4 11 19 26 32 32 14 7 26 23 28 35 5 32 -22 28 -48 -7 -27 -38 -54 -47
-85 -27 -33 22 -33 65 1 105 31 37 75 44 67 10z m2231 -145 c10 -26 8 -28 -54
-54 -61 -25 -63 -28 -45 -72 4 -11 0 -20 -13 -27 -18 -9 -22 -5 -42 45 -13 30
-21 56 -19 58 11 10 136 64 150 65 9 1 20 -6 23 -15z m-1170 -10 c9 -24 7
-137 -3 -153 -5 -8 -16 -11 -25 -8 -13 5 -16 22 -16 85 0 43 3 82 7 85 11 12
31 7 37 -9z m-1037 -67 c10 -10 -13 -47 -28 -47 -25 0 -44 -46 -28 -66 7 -8 8
-23 2 -39 l-8 -25 -73 59 c-40 33 -73 62 -73 66 -1 3 4 20 10 37 l11 31 92 -7
c51 -4 93 -8 95 -9z m1283 -36 c0 -25 -41 -101 -55 -101 -19 0 -19 19 1 70 11
27 22 40 35 40 10 0 19 -4 19 -9z m-480 -42 c22 -42 21 -69 -3 -69 -13 0 -47
71 -47 98 0 27 31 9 50 -29z m730 -56 c0 -20 -98 -123 -117 -123 -31 0 -21 27
33 81 60 60 84 72 84 42z m-890 -120 c0 -29 -40 -10 -89 42 -44 47 -51 58 -40
71 11 13 20 7 71 -43 32 -31 58 -63 58 -70z m460 57 c74 -14 147 -50 203 -100
53 -47 57 -66 5 -26 -157 119 -409 119 -565 0 -48 -36 -40 -13 10 30 100 86
222 120 347 96z m-220 -115 c0 -8 11 -26 25 -41 27 -29 34 -22 10 10 -16 21
-19 37 -7 34 4 0 15 2 24 6 26 12 57 -10 51 -36 -5 -23 -4 -23 16 2 11 14 21
31 21 39 0 11 3 11 16 0 14 -12 13 -15 -10 -32 -14 -10 -26 -25 -26 -32 0 -7
-7 -16 -15 -19 -10 -4 -15 -16 -13 -33 3 -25 0 -28 -27 -28 -27 0 -30 3 -27
28 2 17 -3 29 -13 33 -8 3 -15 11 -15 17 0 6 -9 21 -21 33 -12 12 -18 27 -14
33 8 14 25 4 25 -14z m210 2 c0 -7 11 -25 25 -41 27 -31 34 -24 10 8 -16 21
-19 37 -7 34 4 0 15 2 24 6 26 12 57 -10 51 -35 -9 -32 16 -14 31 23 11 24 15
27 24 15 10 -12 7 -18 -13 -31 -14 -9 -25 -23 -25 -31 0 -8 -7 -15 -16 -15
-13 0 -15 -7 -10 -36 7 -35 7 -35 -26 -32 -29 3 -33 6 -30 31 2 17 -3 29 -13
33 -8 3 -15 11 -15 17 0 6 -9 21 -21 33 -12 12 -18 27 -14 33 8 13 25 5 25
-12z m-351 -127 c64 -33 154 -89 201 -123 l85 -63 72 54 c40 30 73 59 73 64 0
5 5 6 10 3 6 -3 23 3 39 14 52 38 222 114 230 105 7 -7 128 -300 208 -500 2
-7 -21 -16 -59 -23 -130 -25 -322 -101 -455 -180 -29 -17 -53 -29 -53 -26 0 9
146 114 220 157 41 24 109 59 150 77 41 19 77 35 79 37 3 3 -146 363 -155 372
-6 8 -126 -43 -240 -102 l-121 -63 -94 52 c-91 50 -256 122 -263 114 -8 -9
-157 -371 -154 -374 2 -1 40 -19 85 -38 45 -20 118 -59 163 -86 76 -47 230
-159 230 -166 0 -2 -42 21 -93 50 -123 72 -269 132 -399 164 l-106 26 94 235
c116 290 111 280 125 280 6 0 64 -27 128 -60z m-250 -37 c-6 -16 -52 -122
-103 -238 l-92 -210 64 -12 c95 -18 202 -50 279 -82 119 -50 186 -82 181 -86
-2 -2 -35 7 -73 21 -147 53 -261 75 -423 81 -134 5 -152 8 -147 22 3 9 51 126
108 261 l102 245 45 12 c68 17 70 17 59 -14z m1157 6 c16 -5 46 -67 122 -251
55 -133 104 -250 107 -259 5 -14 -12 -17 -147 -22 -162 -6 -278 -28 -423 -81
-38 -14 -71 -24 -72 -22 -2 2 41 23 94 48 115 53 259 101 360 118 l71 13 -25
56 c-41 93 -164 374 -174 399 -8 22 -7 23 29 16 20 -4 46 -10 58 -15z m-679
-51 c-3 -8 -6 -5 -6 6 -1 11 2 17 5 13 3 -3 4 -12 1 -19z m-857 -383 c13 -14
21 -25 18 -25 -2 0 -15 11 -28 25 -13 14 -21 25 -18 25 2 0 15 -11 28 -25z
m1860 22 c0 -2 -12 -14 -27 -28 l-28 -24 24 28 c23 25 31 32 31 24z m-1684
-199 l29 -33 -32 29 c-31 28 -38 36 -30 36 2 0 16 -15 33 -32z m1514 29 c0 -2
-15 -16 -32 -33 l-33 -29 29 33 c28 30 36 37 36 29z m-1300 -31 c0 -2 -8 -10
-17 -17 -16 -13 -17 -12 -4 4 13 16 21 21 21 13z m1071 -13 c13 -16 12 -17 -3
-4 -17 13 -22 21 -14 21 2 0 10 -8 17 -17z m-1502 -38 c34 -17 55 -68 41 -96
-15 -26 -38 -13 -42 24 -2 26 -8 33 -30 35 -37 4 -64 -33 -44 -63 7 -11 23
-20 35 -20 23 -1 44 -23 35 -37 -8 -13 -58 -9 -80 7 -12 8 -27 28 -34 45 -17
41 2 88 44 106 39 17 41 17 75 -1z m2022 -57 c10 14 23 20 33 16 9 -3 16 -8
16 -11 0 -10 -55 -83 -63 -83 -5 0 -35 20 -68 45 -52 41 -57 48 -47 65 11 18
15 17 61 -17 l50 -37 18 22z m-1678 28 l22 18 -22 -24 -23 -24 -22 24 -23 24
23 -18 c21 -19 23 -19 45 0z m1270 0 l22 18 -22 -24 -23 -24 -22 24 -23 24 23
-18 c21 -19 23 -19 45 0z m-1233 -81 c13 -14 21 -25 18 -25 -2 0 -15 11 -28
25 -13 14 -21 25 -18 25 2 0 15 -11 28 -25z m1170 12 c0 -2 -10 -12 -22 -23
l-23 -19 19 23 c18 21 26 27 26 19z m367 -29 c30 -34 34 -55 19 -93 -14 -32
-59 -65 -89 -65 -21 0 -67 39 -77 66 -30 78 91 153 147 92z m-1743 -80 c-9
-14 -30 -9 -49 12 -12 14 -22 17 -29 10 -6 -6 -4 -16 8 -29 26 -29 10 -48 -18
-22 -17 16 -25 18 -34 9 -9 -9 -6 -18 15 -40 23 -25 24 -28 9 -34 -13 -5 -29
4 -53 29 l-36 35 54 61 53 61 43 -42 c23 -23 40 -45 37 -50z m65 -95 c-3 -32
-5 -60 -3 -61 1 -2 15 15 30 37 29 44 36 48 53 28 8 -10 0 -28 -34 -75 -41
-56 -48 -61 -66 -51 -19 10 -21 18 -17 70 2 32 2 59 -1 59 -3 0 -16 -16 -29
-35 -24 -37 -29 -40 -51 -26 -11 7 -4 23 33 75 46 63 48 65 70 51 20 -13 21
-20 15 -72z m1516 32 c35 -34 33 -78 -4 -116 -60 -60 -151 -26 -151 56 0 72
104 112 155 60z m-1340 -82 c59 -29 73 -60 24 -55 -22 2 -29 -5 -49 -48 -26
-56 -24 -54 -50 -40 -19 10 -19 12 7 65 26 53 26 55 9 68 -11 8 -16 19 -12 25
9 16 7 16 71 -15z m1168 -49 c32 -65 32 -66 12 -80 -18 -14 -21 -12 -34 16
-17 34 -20 35 -46 16 -17 -12 -18 -17 -7 -41 11 -23 11 -30 0 -36 -23 -15 -27
-11 -63 61 -34 68 -34 70 -15 80 17 9 22 7 32 -15 12 -28 20 -30 49 -15 16 9
17 15 8 31 -6 11 -8 27 -5 35 12 31 37 12 69 -52z m-1032 -9 c79 -28 102 -70
55 -100 -21 -14 -23 -20 -15 -48 5 -18 9 -33 9 -34 0 -2 -8 -3 -18 -3 -26 0
-42 20 -42 51 0 36 -26 46 -34 13 -6 -22 -34 -33 -48 -18 -6 5 40 154 47 154
1 0 22 -7 46 -15z m821 -31 c17 -16 17 -18 1 -29 -12 -9 -22 -10 -34 -2 -39
24 -71 -18 -44 -59 20 -31 56 -29 70 4 9 20 16 23 43 22 12 -1 1 -43 -15 -62
-18 -21 -72 -33 -102 -23 -26 8 -51 54 -51 94 0 57 88 94 132 55z m-583 -93
c6 -39 11 -77 11 -85 0 -23 -37 -19 -43 4 -4 15 -14 20 -36 20 -17 0 -31 -4
-31 -10 0 -11 -33 -14 -43 -4 -3 4 11 37 31 75 33 62 40 69 68 69 31 0 31 -1
43 -69z m382 59 c10 -6 19 -15 19 -19 0 -15 -32 -22 -47 -10 -10 9 -17 9 -25
1 -18 -18 1 -32 42 -32 43 0 65 -24 53 -57 -11 -29 -35 -42 -79 -43 -47 0 -79
24 -53 41 18 11 26 11 34 -1 8 -13 42 -13 51 1 9 15 -15 29 -52 29 -39 0 -58
21 -50 55 10 38 66 56 107 35z m-269 -70 l-4 -60 31 0 c24 0 31 -4 31 -20 0
-18 -7 -20 -56 -20 l-57 0 7 38 c3 20 6 56 6 80 0 37 3 42 23 42 21 0 22 -3
19 -60z"/>
<path d="M2094 2655 c-29 -29 -30 -46 -5 -69 26 -24 62 -17 81 16 17 32 8 56
-29 69 -17 7 -28 3 -47 -16z"/>
<path d="M792 2568 c-29 -29 1 -88 44 -88 27 0 44 19 44 50 0 33 -17 50 -50
50 -14 0 -31 -5 -38 -12z"/>
<path d="M2330 2525 c-16 -19 3 -45 31 -45 22 0 26 29 7 48 -16 16 -23 15 -38
-3z"/>
<path d="M2558 2238 c-24 -8 -26 -12 -17 -30 11 -20 11 -20 35 3 39 36 33 46
-18 27z"/>
<path d="M389 1969 c27 -22 44 -21 49 4 3 14 -4 17 -35 17 l-38 -1 24 -20z"/>
<path d="M2422 738 c-7 -7 -12 -21 -12 -33 0 -12 5 -26 12 -33 27 -27 78 -7
78 29 0 39 -52 63 -78 37z"/>
<path d="M2248 585 c-10 -22 -9 -29 9 -47 15 -15 28 -19 46 -14 32 8 41 33 22
62 -21 33 -62 32 -77 -1z"/>
<path d="M1130 431 c0 -20 25 -35 41 -25 14 9 10 31 -7 38 -26 10 -34 7 -34
-13z"/>
<path d="M1325 360 c-15 -29 -15 -30 5 -30 16 0 20 7 20 30 0 17 -2 30 -5 30
-2 0 -11 -13 -20 -30z"/>
</g>
</svg>
